<svg xmlns="http://www.w3.org/2000/svg" xmlns:xlink="http://www.w3.org/1999/xlink" version="1.1" width="940" height="788" viewBox="0 0 940 788" xml:space="preserve">

<defs>
</defs>
<rect x="0" y="0" width="100%" height="100%" fill="#ffffff"/>
<g transform="matrix(1 0 0 1 470 394)" style="" id="512437">
		
<path xml:space="preserve" font-family="ABeeZee" font-size="95" font-style="normal" font-weight="normal" style="stroke: none; stroke-width: 1; stroke-dasharray: none; stroke-linecap: butt; stroke-dashoffset: 0; stroke-linejoin: miter; stroke-miterlimit: 4; is-custom-font: none; font-file-url: none; fill: rgb(0,0,0); fill-rule: nonzero; opacity: 1; white-space: pre;" d="M-173.99 29.65L-173.99-36.47Q-169.53-36.94-165.25-37.18Q-160.98-37.42-155.47-37.42L-155.47-37.42Q-146.92-37.42-140.74-34.76Q-134.57-32.10-130.48-27.44Q-126.40-22.79-124.45-16.61Q-122.50-10.44-122.50-3.50L-122.50-3.50Q-122.50 3.43-124.50 9.66Q-126.49 15.88-130.63 20.53Q-134.76 25.19-141.17 27.90Q-147.58 30.60-156.51 30.60L-156.51 30.60Q-161.93 30.60-165.96 30.37Q-170.00 30.13-173.99 29.65L-173.99 29.65ZM-155.75-29.63L-155.75-29.63Q-158.51-29.63-160.79-29.48Q-163.07-29.34-164.97-29.15L-164.97-29.15L-164.97 22.24Q-162.97 22.53-160.79 22.62Q-158.60 22.72-156.23 22.72L-156.23 22.72Q-149.86 22.72-145.21 20.77Q-140.55 18.82-137.56 15.36Q-134.57 11.89-133.14 7.09Q-131.72 2.29-131.72-3.50L-131.72-3.50Q-131.72-8.63-133.14-13.33Q-134.57-18.04-137.51-21.69Q-140.46-25.35-145.02-27.49Q-149.58-29.63-155.75-29.63ZM-101.60-19.56L-101.60 29.84L-110.15 29.84L-110.15-19.56L-101.60-19.56ZM-105.88-28.01L-105.88-28.01Q-108.35-28.01-110.10-29.77Q-111.86-31.53-111.86-34.00L-111.86-34.00Q-111.86-36.75-110.25-38.37Q-108.63-39.98-105.88-39.98L-105.88-39.98Q-103.41-39.98-101.65-38.22Q-99.89-36.47-99.89-34.00L-99.89-34.00Q-99.89-31.24-101.51-29.63Q-103.12-28.01-105.88-28.01ZM-89.73 5.43L-89.73 5.43Q-89.73-0.08-88.02-4.88Q-86.31-9.68-83.22-13.19Q-80.13-16.71-75.81-18.70Q-71.49-20.70-66.36-20.70L-66.36-20.70Q-62.08-20.70-58.61-19.22Q-55.15-17.75-52.58-15.57L-52.58-15.57L-52.58-19.56L-44.79-19.56L-44.79 17.87Q-44.79 21.48-43.03 22.58Q-41.28 23.67-39.19 23.67L-39.19 23.67L-40.99 30.32Q-50.11 30.32-52.01 22.91L-52.01 22.91Q-53.15 24.43-54.62 25.90Q-56.10 27.37-58.00 28.51Q-59.90 29.65-62.27 30.32Q-64.65 30.98-67.50 30.98L-67.50 30.98Q-72.15 30.98-76.19 29.18Q-80.23 27.37-83.22 24.05Q-86.21 20.72-87.97 16.02Q-89.73 11.32-89.73 5.43ZM-65.60 23.38L-65.60 23.38Q-61.99 23.38-58.76 21.67Q-55.53 19.96-53.34 17.21L-53.34 17.21L-53.34-9.30Q-55.91-11.10-58.99-12.19Q-62.08-13.29-65.50-13.29L-65.50-13.29Q-68.92-13.29-71.77-11.96Q-74.62-10.63-76.66-8.20Q-78.71-5.78-79.85-2.36Q-80.99 1.06-80.99 5.14L-80.99 5.14Q-80.99 9.13-79.85 12.51Q-78.71 15.88-76.62 18.30Q-74.53 20.72-71.72 22.05Q-68.92 23.38-65.60 23.38ZM-19.71-40.46L-19.71 13.50Q-19.71 18.63-17.57 21.10Q-15.44 23.57-11.64 23.57L-11.64 23.57Q-9.83 23.57-8.12 23.15Q-6.41 22.72-5.08 22.15L-5.08 22.15L-2.99 29.08Q-4.70 29.84-7.22 30.41Q-9.74 30.98-12.78 30.98L-12.78 30.98Q-16.10 30.98-18.90 30.03Q-21.71 29.08-23.80 27.09Q-25.89 25.09-27.07 21.96Q-28.26 18.82-28.26 14.36L-28.26 14.36L-28.26-40.46L-19.71-40.46ZM43.65 8.66L9.07 8.66Q9.93 15.59 13.92 19.49Q17.91 23.38 24.46 23.38L24.46 23.38Q28.74 23.38 32.16 22.48Q35.58 21.58 38.71 20.15L38.71 20.15L40.71 27.47Q37.29 29.08 33.01 30.03Q28.74 30.98 23.42 30.98L23.42 30.98Q18.10 30.98 13.82 29.23Q9.55 27.47 6.56 24.19Q3.56 20.91 1.95 16.12Q0.33 11.32 0.33 5.14L0.33 5.14Q0.33-0.37 1.95-5.12Q3.56-9.87 6.51-13.33Q9.45-16.80 13.54-18.75Q17.62-20.70 22.66-20.70L22.66-20.70Q27.98-20.70 31.97-18.89Q35.96-17.09 38.62-13.95Q41.28-10.82 42.61-6.64Q43.94-2.46 43.94 2.20L43.94 2.20Q43.94 5.52 43.65 8.66L43.65 8.66ZM22.47-13.29L22.47-13.29Q16.86-13.29 13.30-9.49Q9.74-5.69 8.98 1.72L8.98 1.72L36.05 1.72Q36.05-5.50 32.44-9.39Q28.83-13.29 22.47-13.29ZM55.34 29.84L55.34-40.46L63.89-40.46L63.89-0.27L86.21-20.51L91.15-15.09L72.06 1.82L95.33 25.09L89.44 30.79L63.89 4.48L63.89 29.84L55.34 29.84ZM105.97-17.75L107.78-33.33L114.33-33.33L114.33-17.75L128.01-17.75L128.01-10.34L114.33-10.34L114.33 13.50Q114.33 16.26 114.95 18.16Q115.57 20.06 116.61 21.20Q117.66 22.34 119.13 22.86Q120.60 23.38 122.22 23.38L122.22 23.38Q124.59 23.38 126.68 22.62Q128.77 21.86 130.67 20.82L130.67 20.82L133.05 27.66Q131.15 28.80 127.92 29.89Q124.69 30.98 121.17 30.98L121.17 30.98Q114.05 30.98 109.92 26.33Q105.78 21.67 105.78 12.84L105.78 12.84L105.78-10.34L97.23-10.34L97.23-17.75L105.97-17.75ZM182.07 21.77L182.07 29.84L142.55 29.84L142.55-36.66L151.57-36.66L151.57 21.77L182.07 21.77Z"/></g>
</svg>