<?xml version="1.0" standalone="no"?>
<!DOCTYPE svg PUBLIC "-//W3C//DTD SVG 20010904//EN"
 "http://www.w3.org/TR/2001/REC-SVG-20010904/DTD/svg10.dtd">
<svg version="1.0" xmlns="http://www.w3.org/2000/svg"
 width="558.000000pt" height="314.000000pt" viewBox="0 0 558.000000 314.000000"
 preserveAspectRatio="xMidYMid meet">
<g transform="translate(0.000000,314.000000) scale(0.100000,-0.100000)"
fill="#000000" stroke="none">
<path d="M2380 1650 c0 -447 1 -453 58 -513 50 -52 172 -69 259 -36 20 7 21
11 11 46 -13 51 -17 53 -63 43 -54 -12 -108 3 -131 38 -18 25 -19 56 -22 430
l-3 402 -54 0 -55 0 0 -410z"/>
<path d="M3517 2053 c-4 -3 -7 -219 -7 -480 l0 -473 60 0 60 0 0 173 0 172
174 -180 174 -180 41 40 41 39 -155 156 c-85 85 -155 158 -155 161 0 5 220
204 250 226 2 2 -12 20 -32 40 l-36 36 -149 -135 -148 -136 -3 274 -2 274 -53
0 c-30 0 -57 -3 -60 -7z"/>
<path d="M1266 2029 c-35 -27 -36 -86 -3 -117 34 -32 89 -30 116 4 35 45 24
96 -26 122 -32 17 -57 15 -87 -9z"/>
<path d="M413 2003 l-23 -4 0 -448 0 -448 46 -7 c26 -3 97 -6 158 -6 186 0
297 39 382 133 78 87 114 193 114 335 0 194 -86 344 -238 415 -66 31 -69 31
-242 33 -96 1 -185 0 -197 -3z m364 -123 c136 -58 212 -225 183 -404 -21 -131
-84 -217 -186 -256 -42 -15 -78 -20 -159 -20 l-105 0 0 349 0 350 23 5 c54 12
193 -1 244 -24z"/>
<path d="M4700 1550 l0 -450 270 0 270 0 0 55 0 55 -210 0 -210 0 0 395 0 395
-60 0 -60 0 0 -450z"/>
<path d="M4229 1958 c0 -2 -6 -48 -12 -103 l-12 -100 -60 -5 -60 -5 -3 -47 -3
-48 60 0 59 0 4 -207 c3 -222 8 -242 62 -301 52 -58 153 -73 254 -38 58 20 58
22 32 91 -10 25 -10 25 -46 10 -42 -17 -107 -20 -135 -5 -42 23 -49 58 -49
260 l0 190 90 0 90 0 0 50 0 50 -90 0 -90 0 0 105 0 105 -45 0 c-25 0 -45 -1
-46 -2z"/>
<path d="M1787 1779 c-94 -22 -168 -86 -214 -184 -25 -54 -28 -71 -28 -165 0
-93 3 -112 26 -161 57 -121 148 -183 269 -182 75 0 121 17 175 64 29 26 40 30
43 20 9 -28 50 -60 92 -71 49 -13 56 -9 65 42 7 34 5 39 -18 47 -14 6 -31 19
-36 30 -7 12 -11 117 -11 285 l0 266 -55 0 c-52 0 -55 -1 -55 -25 l0 -25 -37
24 c-62 41 -139 53 -216 35z m196 -121 l47 -21 -2 -190 -3 -191 -42 -30 c-49
-34 -129 -45 -187 -26 -47 15 -110 88 -126 144 -7 25 -11 76 -8 113 11 188
148 274 321 201z"/>
<path d="M3005 1781 c-87 -23 -169 -92 -206 -176 -41 -93 -41 -256 -1 -349 28
-62 76 -112 140 -143 49 -24 68 -27 147 -27 88 0 209 26 221 46 4 5 1 30 -6
54 -10 35 -16 44 -29 38 -97 -40 -211 -46 -278 -13 -49 24 -103 103 -103 151
l0 28 233 2 232 3 -1 87 c-1 77 -5 95 -32 151 -48 96 -119 143 -230 152 -31 2
-70 1 -87 -4z m155 -116 c50 -26 89 -93 90 -157 l0 -28 -185 0 -184 0 5 33 c9
48 46 117 75 139 50 38 139 43 199 13z"/>
<path d="M1260 1435 l0 -335 60 0 60 0 0 335 0 335 -60 0 -60 0 0 -335z"/>
</g>
</svg>
